# xmcd
#
# Track frame offsets: 
#        150
#        30321
#        48342
#        71414
#        90828
#        114998
#        125584
#        161760
#        188346
#        209382
#        217300
#        253805
#        278818
#
# Disc length: 3823 seconds
#
# Revision: 1
# Processed by: cddbd v1.5.2PL0 Copyright (c) Steve Scherf et al.
# Submitted via: ExactAudioCopy v0.95b4
#
DISCID=b30eed0d
DTITLE=Eero Koivistoinen Music Society - X-Ray
DYEAR=2006
DGENRE=Jazz+Funk
TTITLE0=Northern Dimension
TTITLE1=Listen What I Say (Feat. Bina Nkwazi)
TTITLE2=Zavala
TTITLE3=Commentaries (Feat. Charles Salter)
TTITLE4=On The Road
TTITLE5=X-Ray (Feat. Redrama)
TTITLE6=19
TTITLE7=Straight Up
TTITLE8=Around The Corner
TTITLE9=Chains Off
TTITLE10=Mean Meat Blues (Feat. Redrama)
TTITLE11=Last Hope Bar (Feat. Hannu Leiden)
TTITLE12=Jack D
EXTD=YEAR: 2006
EXTT0=
EXTT1=
EXTT2=
EXTT3=
EXTT4=
EXTT5=
EXTT6=
EXTT7=
EXTT8=
EXTT9=
EXTT10=
EXTT11=
EXTT12=
PLAYORDER=
